<?xml version="1.0" standalone="no"?>
<!DOCTYPE svg PUBLIC "-//W3C//DTD SVG 20010904//EN"
 "http://www.w3.org/TR/2001/REC-SVG-20010904/DTD/svg10.dtd">
<svg version="1.0" xmlns="http://www.w3.org/2000/svg"
 width="980.000000pt" height="980.000000pt" viewBox="0 0 980.000000 980.000000"
 preserveAspectRatio="xMidYMid meet">
<metadata>
Created by potrace 1.14, written by Peter Selinger 2001-2017
</metadata>
<g transform="translate(0.000000,980.000000) scale(0.100000,-0.100000)"
fill="#000000" stroke="none">
<path d="M2860 9784 c-228 -48 -433 -183 -558 -366 -49 -71 -109 -202 -134
-293 l-23 -80 -3 -1917 -2 -1917 -693 -4 c-614 -3 -699 -5 -756 -20 -331 -89
-563 -313 -663 -637 l-23 -75 -3 -1615 c-3 -1794 -6 -1699 64 -1909 117 -352
372 -645 710 -814 105 -53 209 -91 319 -118 78 -18 164 -19 3707 -19 3546 0
3629 0 3740 19 635 109 1130 604 1239 1239 19 112 19 196 19 3947 l0 3832 -24
96 c-82 321 -334 569 -659 647 -81 20 -128 20 -3137 19 -2572 0 -3065 -3
-3120 -15z m6145 -621 c65 -22 136 -93 158 -158 16 -45 17 -325 17 -3814 0
-3633 -1 -3769 -19 -3856 -72 -352 -344 -623 -696 -696 -87 -18 -199 -19
-3012 -19 -1608 0 -2923 2 -2923 5 0 2 16 30 36 61 66 104 130 264 171 429 16
66 18 319 23 3960 l5 3890 28 57 c33 67 81 110 152 138 49 19 112 19 3031 19
2757 1 2984 0 3029 -16z m-6867 -6245 l-3 -1673 -23 -75 c-42 -135 -97 -225
-197 -325 -103 -103 -168 -145 -292 -188 -75 -25 -107 -31 -213 -35 -105 -4
-139 -1 -210 17 -271 67 -475 264 -556 536 -17 56 -19 151 -21 1614 -3 1393
-2 1560 12 1602 32 96 99 160 195 185 33 9 211 13 678 13 l632 1 -2 -1672z"/>
<path d="M3580 7954 c-142 -38 -216 -146 -213 -313 2 -135 83 -248 201 -281
24 -6 532 -10 1489 -10 1441 0 1453 0 1507 21 109 40 176 149 176 284 0 133
-63 237 -173 286 l-52 24 -1440 2 c-1237 2 -1448 0 -1495 -13z"/>
<path d="M3578 6116 c-136 -37 -210 -142 -210 -301 -1 -102 25 -166 92 -229
89 -83 -140 -76 2535 -74 l2380 3 55 31 c106 60 157 165 147 299 -7 91 -36
153 -97 208 -87 78 142 72 -2490 74 -1885 1 -2375 -1 -2412 -11z"/>
<path d="M3559 4274 c-55 -16 -132 -82 -159 -133 -30 -61 -43 -151 -30 -223
19 -106 73 -177 165 -220 l50 -23 2390 0 2390 0 46 23 c60 30 112 82 140 141
19 38 23 63 24 142 0 87 -3 101 -30 154 -19 37 -46 72 -73 92 -89 68 101 63
-2506 62 -2005 0 -2368 -3 -2407 -15z"/>
<path d="M3544 2429 c-110 -42 -176 -146 -177 -278 -1 -140 52 -234 161 -288
l57 -28 2385 0 2385 0 53 24 c73 33 134 103 156 179 44 159 -9 308 -134 377
l-55 30 -2390 2 c-2358 2 -2391 2 -2441 -18z"/>
</g>
</svg>
